<svg width="68" height="62" viewBox="0 0 68 62" fill="none" xmlns="http://www.w3.org/2000/svg">
<g clip-path="url(#clip0_2106_37181)">
<path fill-rule="evenodd" clip-rule="evenodd" d="M55.2781 0.348877C48.5591 3.62699 42.2742 7.76703 38.5496 17.0373C36.5366 22.0531 35.6822 27.0468 37.2136 32.3535C38.3877 36.4219 41.2509 40.3868 47.9183 44.0483C55.8323 49.0337 54.4 54.3281 48.9988 61.9986C58.7835 58.544 66.4337 48.0601 67.8101 38.1071C68.6938 31.7385 66.6347 25.4015 58.4526 22.3482C55.6466 21.3015 53.5107 20.2754 51.6359 17.8399C47.2021 12.0795 51.2645 6.84166 55.2781 0.348877Z" fill="#C9E8FB"/>
<path fill-rule="evenodd" clip-rule="evenodd" d="M52.0379 0.362793C45.3189 3.6409 39.034 7.77957 35.3081 17.0512C33.2936 22.067 32.442 27.0607 33.9763 32.3675C35.1475 36.4344 38.0094 40.3993 44.6865 44.0622C52.5936 49.0476 54.4 54.3296 48.9988 61.9987C60.0162 56.6823 68.1968 43.5781 65.3518 31.2711C64.3941 27.1283 61.7961 23.6695 56.6071 22.0298C53.7481 21.1265 52.151 20.5141 49.761 18.5682C43.9578 13.8462 47.593 7.08175 52.0379 0.362793Z" fill="#0080C9"/>
<path fill-rule="evenodd" clip-rule="evenodd" d="M49.6089 -8.57482e-05C42.8884 3.27802 36.6022 7.41807 32.8762 16.6939C30.8645 21.7055 30.0102 26.7006 31.5416 32.006C32.7171 36.0729 35.5789 40.0364 42.2519 43.7007C50.1603 48.6861 54.4 54.328 48.9988 61.9985C55.232 58.3991 59.1381 53.3226 61.549 48.0145C65.9395 38.3429 66.4532 24.8112 54.3693 21.6338C51.467 20.8739 48.8159 20.3085 46.3338 18.4784C40.0364 13.8295 44.9238 6.89539 49.6103 -0.00146484" fill="#004D97"/>
<path d="M51.957 32.253L54.7183 32.2419L54.5857 32.9025C54.5089 33.2597 54.5103 33.5342 54.5885 33.7217C54.6652 33.9093 54.816 34.0044 55.0394 34.003C55.2404 34.003 55.4219 33.9162 55.5838 33.7548C55.7416 33.5893 55.8477 33.3769 55.9049 33.1011C55.9845 32.7232 55.7416 32.2599 55.1804 31.711C55.1329 31.671 55.1064 31.6448 55.0938 31.6255C54.9849 31.5221 54.8342 31.38 54.6359 31.1966C53.3181 29.9375 52.7722 28.7335 53.011 27.5861C53.2134 26.6001 53.6978 25.8071 54.4572 25.2196C55.2195 24.6307 56.1352 24.3356 57.2186 24.3301C58.2572 24.3259 59.0083 24.5935 59.4717 25.1299C59.931 25.6692 60.0608 26.4235 59.8584 27.4041L59.7523 27.9116L57.0106 27.9212L57.1125 27.4289C57.1851 27.0786 57.1878 26.8207 57.1194 26.6566C57.0524 26.4953 56.9031 26.4139 56.6699 26.4139C56.487 26.4139 56.3167 26.487 56.1632 26.6318C56.0068 26.7738 55.9077 26.9517 55.863 27.1669C55.7765 27.5723 56.1394 28.1405 56.9449 28.8825C57.1962 29.1114 57.3903 29.2962 57.5243 29.4286C58.186 30.0575 58.6146 30.6229 58.8016 31.1235C58.9915 31.6186 59.0208 32.2047 58.8812 32.8653C58.6732 33.8638 58.1818 34.665 57.4028 35.2539C56.6253 35.8428 55.6704 36.1434 54.5452 36.1475C53.487 36.1517 52.7164 35.8772 52.2278 35.3201C51.7434 34.7671 51.601 33.9962 51.802 33.0129L51.9598 32.2502L51.957 32.253ZM44.1281 27.9405C44.3738 26.7545 44.868 25.865 45.6121 25.2734C46.3506 24.6845 47.3501 24.388 48.6149 24.3839C49.8769 24.3783 50.7578 24.668 51.2645 25.2513C51.7657 25.8388 51.8969 26.7242 51.6512 27.9116L50.6782 32.6184C50.4339 33.8086 49.9369 34.6981 49.1901 35.2884C48.4446 35.8786 47.4409 36.1779 46.1775 36.1834C44.9155 36.1875 44.036 35.8979 43.5362 35.3159C43.0378 34.7312 42.9122 33.8403 43.1607 32.6488L44.1295 27.9405H44.1281ZM47.5079 33.0597L48.6554 27.4992C48.7238 27.1641 48.721 26.9242 48.64 26.7793C48.5605 26.6373 48.4013 26.5642 48.1612 26.5656C47.9225 26.5656 47.734 26.6442 47.5916 26.7918C47.4562 26.9393 47.3529 27.1738 47.2845 27.5048L46.137 33.0639C46.0672 33.4031 46.0686 33.6417 46.1453 33.7893C46.2207 33.9327 46.3813 34.0044 46.6256 34.003C46.8713 34.003 47.0625 33.93 47.1965 33.7852C47.3306 33.6376 47.4367 33.399 47.5065 33.0597M33.4123 36.0193L35.759 24.6404L38.6362 24.6293L38.3542 25.9795C38.7227 25.4775 39.1415 25.0927 39.612 24.821C40.0824 24.5507 40.5641 24.4142 41.0597 24.4114C41.7981 24.4087 42.2937 24.6404 42.5646 25.0955C42.8326 25.5533 42.8675 26.2512 42.6776 27.1834L40.8572 35.9889L37.8279 36.0014L39.4584 28.1074C39.5185 27.8123 39.5115 27.5889 39.4361 27.4413C39.3635 27.2882 39.2225 27.2165 39.0075 27.2165C38.7493 27.2165 38.5371 27.3213 38.3723 27.5268C38.2104 27.7337 38.082 28.0812 37.98 28.5722L36.4444 36.0069L33.4109 36.0193H33.4123ZM28.9478 35.2208C28.5137 35.578 28.0976 35.8359 27.7012 36.0069C27.3033 36.1751 26.8999 36.2606 26.4908 36.2634C25.7677 36.2661 25.2428 36.0179 24.9217 35.5283C24.602 35.036 24.5238 34.3713 24.6997 33.5355L24.8854 32.6377C25.039 31.8903 25.3433 31.2614 25.79 30.7553C26.2354 30.2505 26.8664 29.823 27.6719 29.481C27.817 29.4176 28.0278 29.3307 28.2959 29.2148C29.5802 28.6949 30.2726 28.1584 30.3871 27.6109L30.4737 27.2014C30.5141 27 30.4834 26.829 30.3801 26.6897C30.274 26.5435 30.1219 26.4759 29.9222 26.4759C29.7003 26.4759 29.5034 26.5752 29.3261 26.7752C29.1502 26.971 29.0274 27.2386 28.9576 27.5806L28.8124 28.2908L25.9813 28.3032L26.1279 27.593C26.3345 26.6042 26.8063 25.8374 27.5588 25.2858C28.3084 24.7369 29.2633 24.4611 30.4192 24.4556C31.6924 24.4501 32.5635 24.7107 33.0284 25.2361C33.4974 25.7561 33.6049 26.6139 33.3606 27.8123L31.6645 36.0262L28.8347 36.0358L28.9492 35.2194L28.9478 35.2208ZM29.8189 30.3636C29.1712 30.6822 28.73 30.9635 28.4997 31.2021C28.2749 31.4448 28.1172 31.7731 28.0306 32.1951L27.7919 33.348C27.704 33.7741 27.6914 34.0582 27.7389 34.192C27.7947 34.3271 27.9231 34.3947 28.1284 34.3933C28.4062 34.3933 28.6379 34.2706 28.8389 34.0224C29.04 33.7796 29.1879 33.4266 29.2815 32.9715L29.8203 30.3636H29.8189ZM21.5126 27.6068C21.5824 27.2703 21.5796 27.0317 21.5001 26.8869C21.4191 26.7449 21.2599 26.6732 21.0226 26.6745C20.7811 26.6745 20.5954 26.7504 20.4517 26.8993C20.3148 27.0469 20.2115 27.2827 20.1431 27.6137L18.9942 33.1715C18.9272 33.5121 18.9286 33.7521 19.004 33.8982C19.078 34.0417 19.2385 34.1106 19.4856 34.1092C19.7313 34.1092 19.9226 34.0375 20.0566 33.8927C20.1934 33.7452 20.2967 33.5052 20.3665 33.1646L20.7616 31.2449L23.8482 31.2324L23.5396 32.726C23.2939 33.9148 22.797 34.8071 22.0487 35.3973C21.3046 35.9876 20.2981 36.2868 19.0389 36.291C17.7741 36.2965 16.896 36.0041 16.3976 35.4235C15.8964 34.8402 15.7722 33.9479 16.0179 32.7563L16.9909 28.0495C17.2338 26.8621 17.7294 25.9698 18.4707 25.3796C19.2092 24.7907 20.2101 24.4942 21.4735 24.49C22.7341 24.4845 23.6164 24.7741 24.1218 25.3575C24.6257 25.9422 24.7556 26.8318 24.5085 28.0178L24.3075 28.9983L21.2209 29.0093L21.5126 27.6054V27.6068ZM10.6363 36.1103L13.5707 21.8973L16.6 21.8877L13.6684 36.0979L10.6349 36.1103H10.6363ZM5.04521 31.0063L6.60595 31.0008L7.00242 26.6607C7.02615 26.3698 7.05966 26.0622 7.09177 25.7285C7.13086 25.3989 7.18809 24.8955 7.26906 24.2239C7.15459 24.6073 7.03313 25.0045 6.90191 25.4168C6.76929 25.8278 6.63248 26.2456 6.48869 26.6814L5.04381 31.0049L5.04521 31.0063ZM0 36.1517L5.58965 21.9304L9.9536 21.9125L9.64229 36.1144L6.18017 36.1296L6.38399 33.5769L4.1364 33.5852L3.28622 36.1406L0.00139602 36.1544L0 36.1517Z" fill="#95C11F"/>
<path d="M37.8293 36.0013L40.8586 35.9889L42.6776 27.1834C42.8689 26.2511 42.834 25.5533 42.566 25.0954C42.2951 24.6403 41.7995 24.41 41.0624 24.4114C40.5669 24.4141 40.0852 24.5507 39.6148 24.821C39.1443 25.0885 38.7241 25.476 38.357 25.9794L38.6376 24.6279L35.7604 24.6389L33.4137 36.0179L36.4458 36.0054L37.9828 28.5707C38.0847 28.0798 38.2146 27.7295 38.3751 27.5254C38.5384 27.3199 38.7492 27.2151 39.0089 27.2137C39.2239 27.2137 39.3649 27.2868 39.4375 27.4413C39.5115 27.5861 39.5198 27.8109 39.4598 28.1032L37.8307 35.9999L37.8293 36.0013Z" fill="white"/>
<path d="M57.2172 24.3301C56.1352 24.3342 55.2181 24.6321 54.4558 25.2196C53.6964 25.8085 53.212 26.5987 53.0096 27.5861C52.7708 28.7363 53.3153 29.9375 54.6359 31.1966C54.8356 31.38 54.9835 31.5221 55.0938 31.6255C55.1064 31.6448 55.1343 31.6724 55.1804 31.711C55.7402 32.2571 55.9831 32.7233 55.9049 33.1011C55.8477 33.3769 55.7416 33.5921 55.5838 33.7548C55.4219 33.9162 55.2404 34.0003 55.0394 34.0017C54.8174 34.0017 54.6652 33.9079 54.5885 33.7203C54.5089 33.5328 54.5089 33.2625 54.5857 32.9025L54.7183 32.2419L51.957 32.253L51.8006 33.017C51.5996 33.9989 51.7406 34.7726 52.2264 35.3215C52.715 35.88 53.4856 36.1544 54.5438 36.1503C55.669 36.1462 56.6239 35.8455 57.4014 35.2567C58.1804 34.6664 58.6718 33.8665 58.8798 32.8681C59.0166 32.2075 58.9901 31.6227 58.8002 31.1249C58.6118 30.6243 58.1846 30.0602 57.5229 29.43C57.3875 29.3017 57.1948 29.1169 56.9449 28.8852C56.1394 28.1433 55.7765 27.5751 55.863 27.1696C55.9077 26.9545 56.0068 26.7766 56.1646 26.6345C56.3181 26.4911 56.4884 26.4194 56.6699 26.418C56.9031 26.418 57.051 26.498 57.1194 26.6608C57.1878 26.8207 57.185 27.08 57.1125 27.4303L57.0105 27.924L59.7523 27.913L59.8584 27.4041C60.0595 26.4263 59.931 25.6733 59.4703 25.1313C59.0082 24.5949 58.2558 24.3273 57.2186 24.3315" fill="white"/>
<path d="M49.1901 35.2884C49.9369 34.6982 50.4339 33.8073 50.6782 32.6171L51.6512 27.9089C51.8969 26.7215 51.7671 25.8361 51.2659 25.25C50.7578 24.6652 49.8769 24.377 48.6149 24.3811C47.3515 24.3867 46.352 24.6832 45.6135 25.272C44.8694 25.8637 44.3752 26.7546 44.1295 27.942L43.1607 32.6488C42.9122 33.8404 43.0378 34.7326 43.5362 35.3146C44.036 35.898 44.9141 36.1876 46.1775 36.1834C47.4395 36.1779 48.4446 35.8759 49.1901 35.2884ZM46.1384 33.0626L47.2859 27.5048C47.3529 27.1738 47.4548 26.9394 47.593 26.789C47.7354 26.6415 47.9239 26.5656 48.1612 26.5656C48.4013 26.5656 48.5605 26.636 48.6414 26.778C48.721 26.9228 48.7252 27.1614 48.6554 27.4993L47.5079 33.057C47.4395 33.3977 47.332 33.6376 47.1979 33.7852C47.0639 33.9314 46.8727 34.0003 46.627 34.0017C46.3827 34.0017 46.2221 33.9355 46.1467 33.7907C46.0686 33.6432 46.0686 33.4032 46.1384 33.0626Z" fill="white"/>
<path d="M2.79763 45.8675L1.59566 45.8702L1.68082 45.4303H1.66686C1.45466 45.7682 1.11822 45.9626 0.727339 45.964C0.161952 45.9668 -0.0725791 45.4772 0.0837748 44.6483L0.494204 42.4942C0.628221 41.7909 0.993978 41.3744 1.57891 41.373C2.01167 41.373 2.22806 41.5219 2.34532 41.8598H2.35928L2.64547 40.3552L3.84744 40.3511L2.79763 45.8688V45.8675ZM2.1764 42.8252C2.22666 42.5576 2.22666 42.2666 1.97538 42.268C1.8637 42.268 1.7227 42.359 1.6864 42.5383L1.26062 44.7752C1.21734 45.0028 1.32344 45.0648 1.4435 45.0648C1.75062 45.0648 1.8288 44.6483 1.88743 44.3449L2.1764 42.8252Z" fill="#95C11F"/>
<path d="M3.96051 42.6182C4.05823 42.0997 4.47145 41.3605 5.67342 41.355C6.87399 41.3509 7.00522 42.0901 6.9075 42.6072L6.67716 43.8222L4.93074 43.8291L4.75065 44.7752C4.72133 44.9255 4.68225 45.1337 4.95447 45.1323C5.22669 45.1323 5.26578 44.9227 5.2951 44.7724L5.4012 44.2194L6.60177 44.2166L6.51243 44.6869C6.41331 45.2041 6.00148 45.9433 4.79951 45.9474C3.59894 45.9515 3.46632 45.2137 3.56404 44.6952L3.96051 42.6169V42.6182ZM5.0857 43.014L5.63014 43.0113L5.72228 42.5286C5.7502 42.3783 5.78929 42.17 5.51706 42.1714C5.24484 42.1714 5.20575 42.3783 5.17644 42.5314L5.0843 43.014H5.0857Z" fill="#95C11F"/>
<path d="M9.3589 41.8306C9.56411 40.755 10.3612 40.2337 11.3175 40.2295C12.2738 40.2254 12.8741 40.7412 12.6689 41.8169L12.5711 42.3285L11.2854 42.3326L11.4041 41.712C11.439 41.5259 11.499 41.2073 11.129 41.2087C10.7591 41.2114 10.6977 41.5272 10.6628 41.7148L10.1435 44.444C10.1169 44.5902 10.0485 44.9474 10.4185 44.9446C10.7884 44.9446 10.8568 44.5847 10.8833 44.4399L11.0383 43.6317L12.3226 43.6262L12.1914 44.3241C12.0044 45.3046 11.2519 45.9224 10.2328 45.9266C9.21371 45.9307 8.69439 45.3184 8.88146 44.3378L9.3575 41.8306H9.3589Z" fill="#95C11F"/>
<path d="M13.0835 42.5838C13.1826 42.0653 13.5944 41.3247 14.7964 41.3206C15.9984 41.3178 16.1296 42.0542 16.0319 42.5714L15.6368 44.6497C15.5391 45.1669 15.1244 45.9074 13.9239 45.9116C12.7219 45.9171 12.5907 45.1793 12.6884 44.6635L13.0835 42.5838ZM13.8736 44.7393C13.8457 44.8924 13.8052 45.0979 14.0774 45.0965C14.3497 45.0965 14.3887 44.8897 14.4195 44.7366L14.8452 42.4942C14.8746 42.3397 14.9136 42.1329 14.6414 42.1342C14.3692 42.1342 14.3287 42.3425 14.3008 42.4969L13.8736 44.7393Z" fill="#95C11F"/>
<path d="M17.1054 40.2973L18.306 40.2917L17.2576 45.8081L16.0556 45.8136L17.1054 40.2973Z" fill="#95C11F"/>
<path d="M18.5168 42.5602C18.6159 42.0431 19.0291 41.3025 20.2297 41.2984C21.4316 41.2942 21.5629 42.0307 21.4651 42.5492L21.0701 44.6275C20.9724 45.146 20.5577 45.8852 19.3572 45.8907C18.1566 45.8949 18.024 45.1584 18.1217 44.6399L18.5168 42.5602ZM19.3069 44.7171C19.279 44.8688 19.2385 45.0757 19.5107 45.0743C19.7829 45.0729 19.822 44.8661 19.8527 44.7144L20.2785 42.4706C20.3078 42.3189 20.3469 42.1106 20.0747 42.112C19.8025 42.112 19.7634 42.3216 19.7341 42.4747L19.3069 44.7185V44.7171Z" fill="#95C11F"/>
<path d="M22.2874 41.3797L23.4461 41.3756L23.3414 41.9217H23.3568C23.6555 41.519 23.9235 41.2832 24.4135 41.2818C24.7974 41.2818 25.1129 41.4514 25.1241 41.9148C25.4312 41.5135 25.6504 41.2777 26.2018 41.2749C26.7798 41.2722 27.0045 41.6721 26.9012 42.2168L26.2256 45.7735L25.0236 45.7777L25.5862 42.8167C25.6169 42.6554 25.6769 42.3396 25.3852 42.341C25.092 42.341 25.0208 42.7133 25.0013 42.8167L24.4359 45.7777L23.2353 45.7846L23.7993 42.8195C23.8286 42.6623 23.89 42.3437 23.5969 42.3437C23.3037 42.3437 23.2325 42.7202 23.213 42.8223L22.649 45.7859L21.4484 45.7887L22.2874 41.377V41.3797Z" fill="#95C11F"/>
<path d="M27.8757 40.2558L29.0776 40.2502L28.7915 41.7548H28.8054C29.0511 41.4156 29.3247 41.2611 29.7575 41.2597C30.3452 41.257 30.5532 41.6707 30.4192 42.3768L30.0088 44.5296C29.851 45.3584 29.4308 45.8508 28.8641 45.8521C28.4718 45.8521 28.2093 45.6604 28.127 45.3239H28.1116L28.0278 45.7652L26.8259 45.7721L27.8757 40.2558ZM28.3182 44.24C28.261 44.5461 28.1814 44.9585 28.4885 44.9557C28.6072 44.9557 28.7384 44.8923 28.7817 44.6647L29.2075 42.4278C29.241 42.2472 29.1335 42.1589 29.0218 42.1589C28.7705 42.1589 28.6588 42.4513 28.6072 42.7188L28.3182 44.2386V44.24Z" fill="#95C11F"/>
<path d="M31.4662 40.2393L32.6682 40.2366L32.5132 41.0489L31.3113 41.053L31.4662 40.2379V40.2393ZM31.2568 41.3454L32.4574 41.3398L31.6184 45.7543L30.4178 45.7571L31.2568 41.3454Z" fill="#95C11F"/>
<path d="M35.0749 45.7378L33.9721 45.7419L34.0363 45.4041H34.0223C33.7892 45.673 33.4249 45.8343 33.0884 45.8357C32.2089 45.8399 32.2313 45.2041 32.3667 44.4939C32.5244 43.665 33.0451 43.3865 33.5212 43.192C34.0042 43.0031 34.4565 42.8983 34.5472 42.4211C34.5905 42.1866 34.5598 42.0556 34.3365 42.057C34.1215 42.057 34.007 42.1756 33.9721 42.3618L33.9037 42.7203L32.7855 42.7245L32.8623 42.3245C32.9865 41.675 33.6538 41.2447 34.4788 41.242C35.5608 41.2392 35.8483 41.664 35.6683 42.6169L35.0749 45.7378ZM34.3365 43.5271L33.9553 43.7712C33.7962 43.876 33.7041 43.9919 33.6719 44.1656L33.5603 44.7518C33.5114 45 33.591 45.1062 33.7585 45.1048C33.947 45.1048 34.0698 44.9297 34.1117 44.7159L34.3378 43.5285L34.3365 43.5271Z" fill="#95C11F"/>
</g>
<defs>
<clipPath id="clip0_2106_37181">
<rect width="68" height="62" fill="white"/>
</clipPath>
</defs>
</svg>
