<?xml version="1.0" encoding="UTF-8"?>
<svg id="SVGDoc" width="271" height="40" xmlns="http://www.w3.org/2000/svg" version="1.1" xmlns:xlink="http://www.w3.org/1999/xlink" xmlns:avocode="https://avocode.com/" viewBox="0 0 271 40"><defs></defs><desc>Generated with Avocode.</desc><g><g><title>logo geopark</title><g><title>Fill 1</title><path d="M0,0v0v17.09282v0h8.85161v0v-5.18601v0h7.78281v0v-4.1716v0h8.2812v0v-7.73521v0z" fill="#b11e2a" fill-opacity="1"></path></g><g><title>Fill 2</title><path d="M30.81,0v0v7.83521v0h8.33001v0v4.16479v0h7.77882v0v5.07002v0h8.80679v0v-17.07002v0z" fill="#b11e2a" fill-opacity="1"></path></g><g><title>Fill 3</title><path d="M46.86002,23.08v0v5.15441v0h-7.78162v0v4.126v0h-8.15841v0v7.63959v0h24.72962v0v-16.92v0z" fill="#363a3f" fill-opacity="1"></path></g><g><title>Fill 4</title><path d="M0.06,23.09v0v16.85762v0h24.74882v0v-7.61161v0h-8.2552v0v-4.1828v0h-7.77241v0v-5.06321v0z" fill="#363a3f" fill-opacity="1"></path></g><g><title>Fill 5</title><path d="M24.13721,12.3v0v5.7v0h-7.35721v0v4.25681v0h7.43321v0v5.58681v0h7.312v0v-5.62601v0h7.40401v0v-4.3004v0h-7.46161v0v-5.61721v0z" fill="#363a3f" fill-opacity="1"></path></g><g><title>Fill 6</title><path d="M93.42882,27.44768c-3.65039,1.2328 -7.17961,1.362 -10.72441,0.216c-3.1292,-1.012 -5.4724,-2.8372 -5.8616,-6.33681c-0.376,-3.3812 1.4808,-6.404 4.8096,-8.0256c2.83559,-1.38161 5.87881,-1.84721 8.95721,-1.36361c2.39038,0.3724 4.6756,1.16441 6.94801,1.75361v-2.45001c-5.22762,-1.24126 -10.39321,-1.3772 -15.55763,-0.24126c-4.70039,1 -8.8316,2.94727 -10.71,7.88247v3.2c2.0156,4.86041 6.16361,6.62721 10.91161,7.53361c0.6356,0.1212 1.2592,0.3092 1.8884,0.4664h7.20001c2.6348,-0.5752 5.26921,-1.1504 7.7968,-1.702v-8.51321v0h-5.658v0z" fill="#363a3f" fill-opacity="1"></path></g><g><title>Fill 8</title><path d="M233.43921,20.31602c1.332,-0.3824 2.69922,-0.8272 3.87122,-1.5408c2.8916,-1.77522 2.81,-4.87041 -0.19519,-6.42481c-1.38922,-0.7188 -2.99121,-1.35041 -4.52521,-1.4084c-5.50961,-0.2636 -11.03162,-0.2772 -16.59003,-0.372c-0.0564,-0.0016 -0.1568,0.1648 -0.19,0.194v18.86602v0h5.67041v0v-8.20361c0.51959,0 1.034,-0.1592 1.29721,0.0244c3.81519,2.66081 7.59799,5.36761 11.5332,8.16601h6.68918c-4.16519,-2.9404 -7.94397,-5.61683 -12,-8.49121c1.83002,-0.3204 3.16922,-0.4448 4.43921,-0.8096M221.4632,19.57722v0v-7.40281c3.60001,-0.17441 7.23203,-0.3612 10.61563,1.3204c2.15759,1.07201 2.2464,3.44961 0.08759,4.50519c-1.7532,0.81882 -3.76559,1.22202 -5.7092,1.52802c-1.55081,0.244 -3.17041,0.0492 -4.99402,0.0492" fill="#363a3f" fill-opacity="1"></path></g><g><title>Fill 10</title><path d="M258.18402,16.68961c2.81598,-1.87961 5.93478,-3.90361 9.27319,-6.09961h-4.45721c-4.25919,2.8952 -8.4176,5.72721 -12.80399,8.71521v-8.67401v0h-5.56601v0v19.01082v0h5.59122v0v-7.58561c1.18158,-0.748 2.45798,-1.5572 3.836,-2.4296c3.38959,3.37319 6.70721,6.75841 9.94278,10.03521h6.23804c-3.97681,-4.28001 -7.9548,-8.56121 -12.05402,-12.97241" fill="#363a3f" fill-opacity="1"></path></g><g><title>Fill 13</title><path d="M185.10562,12.55001c-1.4772,-0.82 -3.21561,-1.55001 -4.8708,-1.6048c-5.50841,-0.2848 -11.0332,-0.2684 -16.55202,-0.3552c-0.086,-0.0016 -0.1748,0.1564 -0.2028,0.1832v18.87122v0h5.66801v0v-8.40561c2.5036,0 4.85199,0.1232 7.1508,-0.03c3.13321,-0.20882 6.26041,-0.6708 8.9232,-2.5288c2.57561,-1.7968 2.56641,-4.68002 -0.11639,-6.13001M178.90642,18.65882c-3.1084,1.2024 -6.34001,1.1784 -9.7308,0.9704v-7.39681c3.3196,-0.2892 6.5444,-0.23241 9.66721,0.83c1.2632,0.434 2.508,1.0724 2.4752,2.74281c-0.0312,1.5888 -1.12801,2.3572 -2.41161,2.8536" fill="#363a3f" fill-opacity="1"></path></g><g><title>Fill 15</title><path d="M199.84361,10.56c4.15639,6.31601 8.23842,12.63881 12.43442,19.07562h-6.41721c-1.1804,-2.0436 -2.304,-3.9896 -3.4052,-5.89641h-12.59042c-1.12639,1.89641 -2.3044,3.87881 -3.5188,5.92321h-3.7364c4.1572,-6.34201 8.25002,-12.58601 12.522,-19.10242zM201.32362,21.92721c-1.7872,-2.8188 -3.3768,-5.32521 -5.1208,-8.07561c-1.74641,2.7556 -3.35721,5.29721 -5.11801,8.07561z" fill="#363a3f" fill-opacity="1"></path></g><g><title>Fill 17</title><path d="M111.32361,27.86842v0v-7.23761v0h11.54082c-0.0408,-0.63081 -0.06641,-1.0848 -0.10561,-1.7228h-11.45761v0v-6.71801v0h14.42722v0v-1.58v0h-20.03842v0v19.01442v0h20.89041c-0.05159,-0.62442 -0.09239,-1.1292 -0.1436,-1.756z" fill="#363a3f" fill-opacity="1"></path></g><g><title>Fill 19</title><path d="M152.60857,11.71718c-5.7576,-2.1456 -11.60857,-2.1424 -17.38242,0.088c-3.93082,1.5268 -5.99602,4.7484 -5.81522,8.69761c0.18721,4.0868 2.34201,6.84961 6.10762,8.32761c1.34999,0.5296 2.784,0.8456 4.1796,1.2588h8.40001c1.56281,-0.514 3.17,-0.9216 4.67841,-1.5628c3.84081,-1.63241 5.7668,-4.60361 5.6824,-8.78241c-0.08119,-4.00561 -2.2596,-6.68881 -5.8504,-8.02681M143.62254,28.48959c-5.47839,-0.0848 -8.474,-3.0784 -8.42319,-8.4184c0.05119,-5.41961 3.15399,-8.37761 8.73039,-8.32321c5.50562,0.0536 8.61801,3.1572 8.57242,8.54761c-0.04521,5.3024 -3.2724,8.2812 -8.87962,8.194" fill="#363a3f" fill-opacity="1"></path></g></g></g></svg>