<?xml version="1.0" encoding="UTF-8"?>
<svg xmlns="http://www.w3.org/2000/svg" id="uuid-b8ff6ecd-3f43-44b7-9ede-c8149737db4d" data-name="Capa 1" viewBox="0 0 522.46 208.62">
  <defs>
    <style>
      .uuid-2571a72c-dcfa-4069-8b96-79b72cebb397 {
        fill: #167658;
      }

      .uuid-2571a72c-dcfa-4069-8b96-79b72cebb397, .uuid-47d1b1a3-b2d9-4d8a-a190-04ab2937ec8c {
        fill-rule: evenodd;
      }

      .uuid-2571a72c-dcfa-4069-8b96-79b72cebb397, .uuid-47d1b1a3-b2d9-4d8a-a190-04ab2937ec8c, .uuid-29d4da10-cf2a-4983-bc9e-b6e4b093c04e {
        stroke-width: 0px;
      }

      .uuid-47d1b1a3-b2d9-4d8a-a190-04ab2937ec8c, .uuid-29d4da10-cf2a-4983-bc9e-b6e4b093c04e {
        fill: #deb93e;
      }
    </style>
  </defs>
  <path class="uuid-2571a72c-dcfa-4069-8b96-79b72cebb397" d="M465.85,120.46c-11.16-17.76-22.32-35.53-33.48-53.29,8.33,1.43,16.07,1.18,23.53.06l21.75,35.78c7.6-11.95,15.19-23.89,22.79-35.84,5.74,1.07,11.61.76,17.53.02l-33.56,48.24,37.26,59.42h-24.84l-24.21-42.76-24.05,42.76h-19.96l37.25-54.39h0Z"></path>
  <rect class="uuid-29d4da10-cf2a-4983-bc9e-b6e4b093c04e" x="61.95" y="187.7" width="170.8" height="20.69"></rect>
  <path class="uuid-47d1b1a3-b2d9-4d8a-a190-04ab2937ec8c" d="M196.3,100.37h-.35l31.61,74.42h-2.75c-8.36,0-16.21,0-24.56,0h0s-75.22-42.4-75.22-42.4c-9.27,11.1-18.13,27.59-20.57,42.4h-34.32l30.91-74.42h-10.95v-19.21h18.15s12.66-40.39,12.66-40.39h-5.93v-15.37s10.75,0,10.75,0L133.66.14l15.27-.13h0s.66,0,.66,0h.02s15.27.13,15.27.13l7.92,25.26h11.42v15.37h-6.6l8.73,27.83c65.39-31.86,194.95-52.86,262.07-24.7-79.37-9.17-182.2-4.69-258.28,36.79l.15.46h17.27v19.21h-11.24ZM172.97,100.37h-14.58c-7.77,5.74-15.25,12.11-20.07,17.19l51.93,29.3c-4.82-13.17-11.67-31.74-17.28-46.49h0ZM137.77,46.72l11.49,11.23,11.49-11.23-1.51-5.96h-19.97l-1.51,5.96h0ZM154.08,62.67l14.23,13.92-5.65-22.31-8.59,8.39h0ZM163.36,81.15l-14.09-13.78-14.09,13.78h28.19ZM144.45,62.67l-8.58-8.39-.23.91-5.42,21.4,14.23-13.91h0ZM152.66,14.76h-6.8l-1.36,5.39-1.33,5.25h12.18l-2.69-10.64Z"></path>
  <path class="uuid-2571a72c-dcfa-4069-8b96-79b72cebb397" d="M0,174.93v-108h36.98c11.87,0,21.33,2.87,28.38,8.61,7.04,5.74,10.57,13.51,10.57,23.29,0,12.84-10.45,21.99-22.09,25.29-5.46,1.55-12.63,2.32-21.51,2.32h-10.14v48.48H0ZM22.19,73.65v45.16h7.82c34.07,0,32.71-45.16-.48-45.16h-7.35Z"></path>
  <path class="uuid-2571a72c-dcfa-4069-8b96-79b72cebb397" d="M252.86,174.93v-107.84h35.97c12.13,0,22.56,1.15,29.3,5.98,6.74,4.83,9.13,11.95,9.13,20.81,0,5.74-1.78,10.92-5.34,15.55-2.31,2.92-4.84,5.16-7.58,6.72-2.74,1.56-6.67,2.94-11.77,4.15l-6.61,1.81,41.47,52.72h-24.71s-38.79-50.35-38.79-50.35l.19,50.46h-21.24ZM274.09,73.65v43.91c11.43-.56,27.6-1.28,32.07-19.42,3.78-14.69-10.81-24.49-20.9-24.49h-11.17Z"></path>
  <g>
    <path class="uuid-47d1b1a3-b2d9-4d8a-a190-04ab2937ec8c" d="M323.55,191.35h-.34c-.31-.81-.82-1.45-1.55-1.93-.73-.48-1.56-.72-2.48-.72-1.12,0-2.04.33-2.77.98-.78.71-1.16,1.57-1.16,2.6,0,1.13.47,2.03,1.42,2.7.71.48,1.92,1.05,3.66,1.73,1.07.41,1.83.74,2.28.98.45.24.87.54,1.26.9.95.88,1.43,2.01,1.43,3.39,0,1.86-.75,3.42-2.26,4.69-1.45,1.24-3.25,1.86-5.41,1.86s-3.93-.56-5.43-1.67c.37-1.06.58-1.95.63-2.66h.33c.44.88,1.13,1.61,2.07,2.16.94.56,1.93.84,2.97.84,1.31,0,2.41-.4,3.27-1.19.87-.81,1.31-1.82,1.31-3.04,0-1.05-.38-1.9-1.14-2.55-.39-.34-.79-.6-1.2-.81-.41-.2-1.18-.53-2.32-.97-1.69-.64-2.93-1.29-3.72-1.97-1.09-.93-1.64-2.13-1.64-3.6,0-.82.18-1.6.56-2.34.37-.74.88-1.36,1.53-1.86,1.21-.92,2.79-1.38,4.73-1.38,1.78,0,3.4.47,4.86,1.4-.42.83-.71,1.64-.87,2.45Z"></path>
    <path class="uuid-47d1b1a3-b2d9-4d8a-a190-04ab2937ec8c" d="M352.37,187.48c3.56,0,6.38.9,8.45,2.7,2.18,1.9,3.26,4.56,3.26,7.98,0,2.11-.49,3.95-1.46,5.53-1.98,3.22-5.39,4.83-10.23,4.83-3.55,0-6.35-.9-8.41-2.7-2.18-1.91-3.26-4.52-3.26-7.83s1.09-5.93,3.26-7.81c2.04-1.76,4.84-2.66,8.38-2.7h0ZM345.33,202.09c.38,1.17.97,2.17,1.76,3,.71.75,1.51,1.33,2.41,1.74.9.41,1.88.65,2.97.71,1-.06,1.92-.3,2.76-.71.84-.41,1.59-.99,2.26-1.74.75-.83,1.34-1.83,1.77-3.01.93-2.54,1.17-5.45.25-8.03-.38-1.08-.96-2.06-1.73-2.92-.73-.79-1.53-1.44-2.46-1.83-3.95-1.64-7.17.11-9.06,3.54-1.54,2.8-1.9,6.26-.92,9.26Z"></path>
    <path class="uuid-47d1b1a3-b2d9-4d8a-a190-04ab2937ec8c" d="M466.05,204.86l.18.1-.07.25-.15.63-.16.65-.06.25c-1.74,1.19-3.98,1.79-6.71,1.79-3.11,0-5.6-.91-7.48-2.71-1.99-1.91-2.98-4.45-2.98-7.63,0-3.36,1.09-6.03,3.27-8,1.99-1.79,4.67-2.68,8.04-2.68,2.49,0,4.6.41,6.32,1.22-.29.67-.48,1.44-.59,2.29l-.23.06c-1.56-1.64-3.48-2.45-5.78-2.45-2.52,0-4.53.95-6.06,2.83-1.33,1.65-2,3.86-2,6.63s.71,5.11,2.11,6.75c1.49,1.72,3.45,2.58,5.88,2.58s4.48-.85,6.47-2.55Z"></path>
    <path class="uuid-47d1b1a3-b2d9-4d8a-a190-04ab2937ec8c" d="M253.11,208.29v-20.48h6.83c2.3,0,4.28.22,5.56,1.14,1.28.92,1.73,2.27,1.73,3.95,0,1.09-.34,2.07-1.02,2.95-.44.55-.92.98-1.44,1.28-.52.3-1.27.56-2.24.79l-1.25.34,7.88,10.01h-4.69s-7.37-9.56-7.37-9.56l.04,9.58h-4.03ZM257.14,189.05v8.34c2.17-.11,5.24-.24,6.09-3.69.72-2.79-2.05-4.65-3.97-4.65h-2.12Z"></path>
    <path class="uuid-47d1b1a3-b2d9-4d8a-a190-04ab2937ec8c" d="M380.27,200.21v-12.55c1.56,0,2.33.07,3.96.03v12.08c0,1.38.14,2.54.43,3.5.29.95.72,1.72,1.31,2.29.53.51,1.13.91,1.8,1.2.67.28,1.4.45,2.18.49.98-.04,1.84-.22,2.55-.53.72-.31,1.29-.75,1.73-1.3.47-.63.84-1.39,1.11-2.29.26-.9.43-1.92.49-3.09v-12.37c1.38,0,1.57.07,3.04.03v11.84c0,1.38-.16,2.61-.49,3.71-.33,1.09-.81,2.05-1.46,2.88-.65.85-1.52,1.47-2.63,1.87-2.25.83-7.47.87-9.83-.01-3.03-1.14-4.19-4.71-4.19-7.71v-.06Z"></path>
    <path class="uuid-47d1b1a3-b2d9-4d8a-a190-04ab2937ec8c" d="M417.01,208.29v-20.48h6.83c2.3,0,4.28.22,5.56,1.14,1.28.92,1.73,2.27,1.73,3.95,0,1.09-.34,2.07-1.02,2.95-.44.55-.92.98-1.44,1.28-.52.3-1.27.56-2.24.79l-1.26.34,7.88,10.01h-4.69s-7.37-9.56-7.37-9.56l.04,9.58h-4.03ZM421.04,189.05v8.34c2.17-.11,5.24-.24,6.09-3.69.72-2.79-2.05-4.65-3.97-4.65h-2.12Z"></path>
    <path class="uuid-47d1b1a3-b2d9-4d8a-a190-04ab2937ec8c" d="M520.73,191.35h-.34c-.31-.81-.82-1.45-1.55-1.93-.73-.48-1.56-.72-2.48-.72-1.12,0-2.04.33-2.77.98-.78.71-1.16,1.57-1.16,2.6,0,1.13.47,2.03,1.42,2.7.71.48,1.92,1.05,3.66,1.73,1.07.41,1.83.74,2.28.98.45.24.87.54,1.26.9.95.88,1.43,2.01,1.43,3.39,0,1.86-.75,3.42-2.26,4.69-1.45,1.24-3.25,1.86-5.41,1.86s-3.93-.56-5.43-1.67c.37-1.06.58-1.95.63-2.66h.33c.44.88,1.13,1.61,2.07,2.16.94.56,1.93.84,2.97.84,1.31,0,2.41-.4,3.27-1.19.87-.81,1.31-1.82,1.31-3.04,0-1.05-.38-1.9-1.14-2.55-.39-.34-.79-.6-1.2-.81-.41-.2-1.18-.53-2.32-.97-1.69-.64-2.93-1.29-3.72-1.97-1.09-.93-1.64-2.13-1.64-3.6,0-.82.18-1.6.55-2.34.37-.74.88-1.36,1.53-1.86,1.21-.92,2.79-1.38,4.73-1.38,1.78,0,3.4.47,4.86,1.4-.42.83-.71,1.64-.87,2.45Z"></path>
    <path class="uuid-47d1b1a3-b2d9-4d8a-a190-04ab2937ec8c" d="M284.86,187.68l11.75-.03c-.08.39-.12.67-.12.86s.04.5.12.91c-2.18-.22-4.65-.33-7.42-.33-.11,0-.22,0-.33,0v7.63h.19c2.96,0,5.22-.09,6.78-.27-.09.41-.13.75-.13,1s.04.53.13.82c-1.53-.18-3.82-.27-6.86-.27h-.11v8.86h.23c3.36,0,5.92-.13,7.68-.39-.07.32-.11.62-.11.91,0,.28.04.58.11.91h-11.94l.03-20.64Z"></path>
    <path class="uuid-47d1b1a3-b2d9-4d8a-a190-04ab2937ec8c" d="M482.15,187.68l11.75-.03c-.08.39-.12.67-.12.86s.04.5.12.91c-2.18-.22-4.65-.33-7.42-.33-.11,0-.22,0-.33,0v7.63h.19c2.96,0,5.22-.09,6.78-.27-.09.41-.13.75-.13,1s.04.53.13.82c-1.53-.18-3.82-.27-6.86-.27h-.11v8.86h.23c3.36,0,5.91-.13,7.68-.39-.07.32-.11.62-.11.91,0,.28.04.58.11.91h-11.94l.03-20.64Z"></path>
  </g>
  <path class="uuid-2571a72c-dcfa-4069-8b96-79b72cebb397" d="M354.5,67.77l62.2-.14c-.41,2.02-.62,3.5-.62,4.49s.21,2.57.62,4.75c-11.52-1.14-24.59-1.7-39.25-1.7-.58,0-1.17,0-1.77.02v39.63h1c15.68,0,27.64-.48,35.88-1.41-.47,2.12-.71,3.87-.71,5.2s.23,2.73.71,4.27c-8.12-.93-20.23-1.38-36.32-1.38h-.57v46.01h1.24c17.76,0,31.31-.66,40.63-2.01-.38,1.65-.59,3.24-.59,4.75,0,1.43.21,3.03.59,4.72h-63.2l.14-107.21Z"></path>
</svg>
